<?xml version="1.0" encoding="utf-8"?>
<!-- Generator: Adobe Illustrator 20.1.0, SVG Export Plug-In . SVG Version: 6.00 Build 0)  -->
<svg version="1.1" id="图层_1" xmlns="http://www.w3.org/2000/svg" xmlns:xlink="http://www.w3.org/1999/xlink" x="0px" y="0px"
	 viewBox="0 0 256 256" style="enable-background:new 0 0 256 256;" xml:space="preserve">
<style type="text/css">
	.st0{fill:#FFFFFF;}
</style>
<path d="M111.5,1.1C89.6,4.1,66.9,13.6,49.4,27c-8.4,6.6-22,21.3-27.8,30.2c-14.9,23-21,43.6-21,70.8c0,35.7,12,64.9,37.3,90.1
	c25.2,25.3,54.4,37.3,90.1,37.3s64.9-12,90.1-37.3c25.3-25.2,37.3-54.4,37.3-90.1s-12-64.9-37.3-90.1c-18.8-18.9-39.5-30-65.6-35.4
	C142.8,0.5,121.1-0.2,111.5,1.1z"/>
<g>
	<rect x="127.4" y="167.7" class="st0" width="38.8" height="38.8"/>
	<rect x="127.4" y="51.2" class="st0" width="38.8" height="38.8"/>
	<rect x="166.2" y="90.1" class="st0" width="38.8" height="38.8"/>
	<rect x="49.8" y="90.1" class="st0" width="38.8" height="38.8"/>
</g>
</svg>
